<?xml version="1.0" encoding="UTF-8" standalone="no"?>
<!-- Created with Inkscape (http://www.inkscape.org/) -->

<svg
   xmlns:dc="http://purl.org/dc/elements/1.1/"
   xmlns:cc="http://creativecommons.org/ns#"
   xmlns:rdf="http://www.w3.org/1999/02/22-rdf-syntax-ns#"
   xmlns:svg="http://www.w3.org/2000/svg"
   xmlns="http://www.w3.org/2000/svg"
   xmlns:sodipodi="http://sodipodi.sourceforge.net/DTD/sodipodi-0.dtd"
   xmlns:inkscape="http://www.inkscape.org/namespaces/inkscape"
   width="800"
   height="200"
   id="svg3031"
   version="1.1"
   inkscape:version="0.48.2 r9819"
   sodipodi:docname="alvascience.svg">
  <defs
     id="defs3033" />
  <sodipodi:namedview
     id="base"
     pagecolor="#ffffff"
     bordercolor="#666666"
     borderopacity="1.0"
     inkscape:pageopacity="0.0"
     inkscape:pageshadow="2"
     inkscape:zoom="1.4"
     inkscape:cx="503.57467"
     inkscape:cy="172.73609"
     inkscape:document-units="px"
     inkscape:current-layer="layer1"
     showgrid="false"
     inkscape:window-width="1600"
     inkscape:window-height="837"
     inkscape:window-x="-4"
     inkscape:window-y="-4"
     inkscape:window-maximized="1"
     height="744.09px" />
  <metadata
     id="metadata3036">
    <rdf:RDF>
      <cc:Work
         rdf:about="">
        <dc:format>image/svg+xml</dc:format>
        <dc:type
           rdf:resource="http://purl.org/dc/dcmitype/StillImage" />
        <dc:title />
      </cc:Work>
    </rdf:RDF>
  </metadata>
  <g
     inkscape:label="Layer 1"
     inkscape:groupmode="layer"
     id="layer1"
     transform="translate(0,-852.36224)">
    <g
       transform="matrix(0.62526277,0,0,0.62526277,-239.2975,638.34573)"
       id="g5"
       style="fill:#000080">
      <path
         inkscape:connector-curvature="0"
         class="st0"
         d="M 700.7,437 V 610.2 H 670 V 437 h 30.7 z"
         id="path7"
         style="fill:#1f3b64;fill-opacity:1" />
      <path
         inkscape:connector-curvature="0"
         class="st0"
         d="m 820.6,514.3 -54.5,97.9 h -0.9 l -57.5,-97.9 h 36.4 l 22.4,45.7 19.8,-45.7 h 34.3 z"
         id="path9"
         style="fill:#1f3b64;fill-opacity:1" />
      <path
         inkscape:connector-curvature="0"
         class="st0"
         d="m 926.5,514.3 v 96 h -30.7 v -11.9 c -9.2,9.7 -19.9,14.5 -32.1,14.5 -14.2,0 -25.7,-4.2 -34.6,-12.7 -8.9,-8.5 -13.3,-21.1 -13.3,-37.8 0,-10.5 2.2,-19.8 6.5,-27.8 4.3,-8 10.1,-14.2 17.2,-18.6 7.2,-4.4 14.9,-6.6 23.1,-6.6 8.5,0 15.2,1.3 20.2,3.8 5,2.6 9.4,6.2 13.2,10.9 l 2,-9.9 h 28.5 z m -30.8,59.1 v -23.5 c -1.8,-4.7 -4.8,-8.4 -9.1,-11.2 -4.3,-2.8 -9.4,-4.2 -15.3,-4.2 -6.7,0 -12.5,2.5 -17.2,7.5 -4.8,5 -7.1,11.3 -7.1,18.9 0,5 1.2,9.6 3.5,13.7 2.3,4.1 5.5,7.4 9.3,9.8 3.9,2.3 8.1,3.5 12.6,3.5 10.7,-0.1 18.5,-4.9 23.3,-14.5 z"
         id="path11"
         style="fill:#1f3b64;fill-opacity:1" />
      <path
         inkscape:connector-curvature="0"
         class="st1"
         d="m 956.1,608 c -6.9,-2.8 -12.6,-6.7 -17.1,-11.6 l 12.7,-16.9 c 8.5,7.9 16.5,11.9 23.9,11.9 4,0 7.1,-0.6 9.6,-1.9 2.4,-1.2 3.6,-3.1 3.6,-5.6 0,-2.9 -1.4,-5.2 -4.2,-6.7 -2.8,-1.5 -5.9,-2.8 -9.3,-3.8 -3.4,-1 -5.7,-1.7 -6.9,-2 -8.3,-2.6 -14.6,-6.5 -18.7,-11.7 -4.1,-5.2 -6.2,-11.2 -6.2,-17.9 0,-5.1 1.4,-10.1 4.1,-15 2.7,-4.9 6.9,-8.9 12.6,-12.1 5.7,-3.1 12.8,-4.7 21.3,-4.7 7.9,0 14.6,0.8 20.2,2.4 5.6,1.6 10.9,4.2 16,7.9 l -11.6,18 c -2.9,-2.3 -6.2,-4.3 -9.8,-5.8 -3.6,-1.5 -6.8,-2.3 -9.8,-2.3 -3.5,0 -6.4,0.7 -8.6,2.2 -2.2,1.5 -3.3,3.2 -3.3,5.3 -0.1,3.1 1.1,5.4 3.8,6.9 2.7,1.5 6.9,3.1 12.6,4.7 0.9,0.3 1.8,0.6 2.7,0.9 0.9,0.3 1.9,0.6 3,0.9 15.1,5 22.6,14.1 22.6,27.2 0,6.1 -1.5,11.8 -4.6,16.9 -3.1,5.1 -7.7,9.3 -13.9,12.4 -6.2,3.1 -13.8,4.7 -22.7,4.7 -7.7,-0.1 -15.1,-1.5 -22,-4.3 z"
         id="path13"
         style="fill:#0095db;fill-opacity:1" />
      <path
         inkscape:connector-curvature="0"
         class="st1"
         d="m 1099.8,609.8 c -6.4,2 -12.6,3.1 -18.8,3.1 -16.7,0 -29.9,-4.5 -39.6,-13.5 -9.7,-9 -14.6,-21.4 -14.6,-37.2 0,-10.2 2.4,-19.2 7.1,-26.9 4.8,-7.7 11,-13.5 18.8,-17.6 7.8,-4 16.1,-6 25,-6 16,0 28.9,4.2 38.9,12.7 l -14.9,19.8 c -6.3,-5 -13.3,-7.5 -21.1,-7.5 -6.4,0 -11.9,2.4 -16.4,7.2 -4.5,4.8 -6.7,10.9 -6.7,18.2 0,7.3 2.4,13.4 7.2,18.3 4.8,4.9 11.1,7.4 18.9,7.4 6.7,0 12.3,-1.8 16.7,-5.5 l 15.4,19.3 c -4.2,3.5 -9.5,6.2 -15.9,8.2 z"
         id="path15"
         style="fill:#0095db;fill-opacity:1" />
      <path
         inkscape:connector-curvature="0"
         class="st1"
         d="m 1133,469.2 c 3.4,-3 7.4,-4.5 11.7,-4.5 4.2,0 8,1.5 11.4,4.5 3.4,3 5,6.7 5,11.1 0,4.4 -1.7,8.1 -5,11 -3.4,2.9 -7.2,4.4 -11.4,4.4 -4.4,0 -8.3,-1.5 -11.7,-4.4 -3.4,-2.9 -5.2,-6.6 -5.2,-11 0,-4.4 1.7,-8.1 5.2,-11.1 z m 26.2,45.1 v 96 h -30.7 v -96 h 30.7 z"
         id="path17"
         style="fill:#0095db;fill-opacity:1" />
      <path
         inkscape:connector-curvature="0"
         class="st1"
         d="m 1246.8,580.4 13.6,22.8 c -5.3,2.9 -10.8,5.3 -16.7,7 -5.9,1.8 -11.4,2.6 -16.7,2.6 -11.4,0 -21.3,-2.2 -29.5,-6.5 -8.3,-4.3 -14.5,-10.4 -18.8,-18.2 -4.2,-7.8 -6.4,-16.8 -6.4,-26.9 0,-9.4 2.5,-18 7.4,-25.9 4.9,-7.9 11.6,-14.2 20.1,-18.8 8.5,-4.6 17.8,-6.9 27.9,-6.9 13.8,0 25.1,4 33.9,12.1 8.9,8.1 14.6,19.5 17.2,34.5 l -70.3,22.4 c 4.7,5.4 11.1,8.1 19.1,8.1 6.3,0.1 12.7,-2.1 19.2,-6.3 z m -37.9,-39.8 c -4.1,4.7 -6.2,11 -6.2,18.9 v 2 l 42.2,-14.3 c -3.1,-9.1 -9.6,-13.6 -19.5,-13.6 -7,0 -12.4,2.4 -16.5,7 z"
         id="path19"
         style="fill:#0095db;fill-opacity:1" />
      <path
         inkscape:connector-curvature="0"
         class="st1"
         d="m 1379.8,517.8 c 6.1,5.4 9.2,12.3 9.3,20.6 v 71.8 h -30.7 v -60.4 c -0.4,-9.4 -5.1,-14.1 -14.1,-14.1 -7,0 -12.7,3.3 -16.9,9.9 -4.2,6.6 -6.4,15.1 -6.4,25.5 v 39.1 h -30.7 v -96 h 27.9 l 2.2,15.4 c 3.5,-6.3 8.4,-11.2 14.6,-14.7 6.2,-3.5 13.6,-5.3 22.1,-5.3 9,0.1 16.6,2.8 22.7,8.2 z"
         id="path21"
         style="fill:#0095db;fill-opacity:1" />
      <path
         inkscape:connector-curvature="0"
         class="st1"
         d="m 1475.3,609.8 c -6.4,2 -12.6,3.1 -18.8,3.1 -16.7,0 -29.9,-4.5 -39.6,-13.5 -9.7,-9 -14.6,-21.4 -14.6,-37.2 0,-10.2 2.4,-19.2 7.1,-26.9 4.8,-7.7 11,-13.5 18.8,-17.6 7.8,-4 16.1,-6 25,-6 16,0 28.9,4.2 38.9,12.7 l -14.9,19.8 c -6.3,-5 -13.3,-7.5 -21.1,-7.5 -6.4,0 -11.9,2.4 -16.4,7.2 -4.5,4.8 -6.7,10.9 -6.7,18.2 0,7.3 2.4,13.4 7.2,18.3 4.8,4.9 11.1,7.4 18.9,7.4 6.7,0 12.3,-1.8 16.7,-5.5 l 15.4,19.3 c -4.2,3.5 -9.5,6.2 -15.9,8.2 z"
         id="path23"
         style="fill:#0095db;fill-opacity:1" />
      <path
         inkscape:connector-curvature="0"
         class="st1"
         d="m 1570.9,580.4 13.6,22.8 c -5.3,2.9 -10.8,5.3 -16.7,7 -5.9,1.8 -11.4,2.6 -16.7,2.6 -11.4,0 -21.3,-2.2 -29.5,-6.5 -8.3,-4.3 -14.5,-10.4 -18.8,-18.2 -4.2,-7.8 -6.4,-16.8 -6.4,-26.9 0,-9.4 2.5,-18 7.4,-25.9 4.9,-7.9 11.6,-14.2 20.1,-18.8 8.5,-4.6 17.8,-6.9 27.9,-6.9 13.8,0 25.1,4 33.9,12.1 8.9,8.1 14.6,19.5 17.2,34.5 l -70.3,22.4 c 4.7,5.4 11.1,8.1 19.1,8.1 6.3,0.1 12.7,-2.1 19.2,-6.3 z M 1533,540.6 c -4.1,4.7 -6.2,11 -6.2,18.9 v 2 l 42.2,-14.3 c -3.1,-9.1 -9.6,-13.6 -19.5,-13.6 -7,0 -12.4,2.4 -16.5,7 z"
         id="path25"
         style="fill:#0095db;fill-opacity:1" />
    </g>
    <g
       transform="matrix(0.62526277,0,0,0.62526277,-239.2975,638.34573)"
       id="g27"
       style="fill:#1f3b64;fill-opacity:1">
      <path
         inkscape:connector-curvature="0"
         class="st0"
         d="m 568.8,463.5 -85.5,49.3 v 98.7 l 85.5,49.3 85.4,-49.3 v -98.7 l -85.4,-49.3 z"
         id="path29"
         style="fill:#1f3b64;fill-opacity:1" />
    </g>
    <g
       transform="matrix(0.62526277,0,0,0.62526277,-239.2975,638.34573)"
       id="g31"
       style="fill:#ffffff">
      <path
         inkscape:connector-curvature="0"
         class="st2"
         d="m 654.6,514.3 v 96 h -30.7 v -11.9 c -9.2,9.7 -19.9,14.5 -32.1,14.5 -14.2,0 -25.7,-4.2 -34.6,-12.7 -8.9,-8.5 -13.3,-21.1 -13.3,-37.8 0,-10.5 2.2,-19.8 6.5,-27.8 4.3,-8 10.1,-14.2 17.2,-18.6 7.2,-4.4 14.9,-6.6 23.1,-6.6 8.5,0 15.2,1.3 20.2,3.8 5,2.6 9.4,6.2 13.2,10.9 l 2,-9.9 h 28.5 z m -30.7,59.1 v -23.5 c -1.8,-4.7 -4.8,-8.4 -9.1,-11.2 -4.3,-2.8 -9.4,-4.2 -15.3,-4.2 -6.7,0 -12.5,2.5 -17.2,7.5 -4.8,5 -7.1,11.3 -7.1,18.9 0,5 1.2,9.6 3.5,13.7 2.3,4.1 5.5,7.4 9.3,9.8 3.9,2.3 8.1,3.5 12.6,3.5 10.7,-0.1 18.5,-4.9 23.3,-14.5 z"
         id="path33"
         style="fill:#ffffff" />
    </g>
    <g
       transform="matrix(0.62526277,0,0,0.62526277,-239.2975,638.34573)"
       id="g35"
       style="fill:#0095db;fill-opacity:1">
      <g
         id="g37"
         style="fill:#0095db;fill-opacity:1">
        <g
           id="g39"
           style="fill:#0095db;fill-opacity:1">
          <g
             id="g41"
             style="fill:#0095db;fill-opacity:1">
            <g
               id="g43"
               style="fill:#0095db;fill-opacity:1">
              <path
                 inkscape:connector-curvature="0"
                 class="st1"
                 d="m 482.4,402.4 -43.4,25 v 50.1 l 43.4,25.1 43.4,-25.1 v -50.1 l -43.4,-25 z"
                 id="path45"
                 style="fill:#0095db;fill-opacity:1" />
            </g>
            <g
               id="g47"
               style="fill:#0095db;fill-opacity:1">
              <path
                 inkscape:connector-curvature="0"
                 class="st1"
                 d="m 546.3,348.2 -35.1,20.2 v 40.5 l 35.1,20.2 35.1,-20.2 v -40.5 l -35.1,-20.2 z"
                 id="path49"
                 style="fill:#0095db;fill-opacity:1" />
            </g>
          </g>
        </g>
      </g>
    </g>
  </g>
</svg>
